<?xml version="1.0"?>
<svg width="366.5" height="398.05" xmlns="http://www.w3.org/2000/svg" xmlns:svg="http://www.w3.org/2000/svg" version="1.1">
 <style type="text/css">.st0 { fill: #000000; }</style>
 <g class="layer">
  <title>Layer 1</title>
  <g id="svg_1" transform="translate(24 1) matrix(1 0 0 0.992501 -96 -0.00749898)">
   <path class="st0" d="m139.01,398.05c233.79,-1 233.85,-0.15 233.85,-0.15c37.02,-7.16 65.01,-39.72 65.01,-78.83l0,-238.74c0,-51.8 -50.31,-80.33 -182.43,-80.33c-132.14,0 -182.44,28.54 -182.44,80.33l0,238.74c0,39.45 28.49,72.21 66.01,78.98zm218.53,-60.22c-15.34,0 -27.78,-12.44 -27.78,-27.77c0,-15.34 12.44,-27.78 27.78,-27.78c15.34,0 27.77,12.44 27.77,27.78c0,15.33 -12.43,27.77 -27.77,27.77zm-174.92,-302.46c0,-2.13 1.71,-3.83 3.83,-3.83l137.98,0c2.11,0 3.83,1.7 3.83,3.83l0,23.86c0,2.12 -1.72,3.83 -3.83,3.83l-137.98,0c-2.12,0 -3.83,-1.71 -3.83,-3.83l0,-23.86zm-69.82,171.98l0,-100.88c0,-9.88 8,-17.88 17.88,-17.88l249.52,0c9.87,0 17.87,8 17.87,17.88l0,100.88c0,9.87 -8,17.87 -17.87,17.87l-249.52,0c-9.88,0 -17.88,-8 -17.88,-17.87zm12.76,102.71c0,-15.34 12.43,-27.78 27.77,-27.78c15.34,0 27.78,12.44 27.78,27.78c0,15.33 -12.44,27.77 -27.78,27.77c-15.33,0 -27.77,-12.44 -27.77,-27.77z" id="svg_2"/>
  </g>
 </g>
</svg>